<svg xmlns="http://www.w3.org/2000/svg" width="191.462" height="57" viewBox="0 0 191.462 57"><defs><linearGradient id="linear-gradient" x1="1.033" y1="-2.738" x2="-.261" y2="-2.062" gradientUnits="objectBoundingBox"><stop offset="0" stop-color="#00a0ff"/><stop offset=".007" stop-color="#00a1ff"/><stop offset=".26" stop-color="#00beff"/><stop offset=".512" stop-color="#00d2ff"/><stop offset=".76" stop-color="#00dfff"/><stop offset="1" stop-color="#00e3ff"/></linearGradient><linearGradient id="linear-gradient-2" x1="1.224" y1="-7.655" x2="-1.151" y2="-7.655" gradientUnits="objectBoundingBox"><stop offset="0" stop-color="#ffe000"/><stop offset=".409" stop-color="#ffbd00"/><stop offset=".775" stop-color="orange"/><stop offset="1" stop-color="#ff9c00"/></linearGradient><linearGradient id="linear-gradient-3" x1=".455" y1="-5.899" x2="-.905" y2="-4.113" gradientUnits="objectBoundingBox"><stop offset="0" stop-color="#ff3a44"/><stop offset="1" stop-color="#c31162"/></linearGradient><linearGradient id="linear-gradient-4" x1="-.593" y1="-5.327" x2=".015" y2="-4.529" gradientUnits="objectBoundingBox"><stop offset="0" stop-color="#32a071"/><stop offset=".068" stop-color="#2da771"/><stop offset=".476" stop-color="#15cf74"/><stop offset=".801" stop-color="#06e775"/><stop offset="1" stop-color="#00f076"/></linearGradient></defs><g id="g10" transform="translate(-14.066 -286.189)"><g id="g12" transform="translate(14.066 286.189)"><path id="path14" d="M198.437 343.189H21.157a7.132 7.132 0 0 1-7.091-7.125v-42.75a7.131 7.131 0 0 1 7.091-7.125h177.28a7.131 7.131 0 0 1 7.091 7.125v42.75a7.132 7.132 0 0 1-7.091 7.125z" transform="translate(-14.066 -286.189)"/><path id="path16" d="M198.437 287.331a5.976 5.976 0 0 1 5.955 5.983v42.75a5.976 5.976 0 0 1-5.955 5.983H21.157a5.976 5.976 0 0 1-5.955-5.983v-42.75a5.976 5.976 0 0 1 5.955-5.983h177.28m0-1.142H21.157a7.131 7.131 0 0 0-7.091 7.125v42.75a7.132 7.132 0 0 0 7.091 7.125h177.28a7.132 7.132 0 0 0 7.091-7.125v-42.75a7.131 7.131 0 0 0-7.091-7.125z" transform="translate(-14.066 -286.189)" fill="#a6a6a6"/><g id="g18" transform="translate(58.648 9.812)"><path id="path20" d="M8.602 4.736a3.8 3.8 0 0 1-1.053 2.807 4.171 4.171 0 0 1-3.131 1.246 4.328 4.328 0 0 1-3.129-1.26 4.448 4.448 0 0 1 0-6.262A4.306 4.306 0 0 1 4.418 0a4.5 4.5 0 0 1 1.746.356 3.459 3.459 0 0 1 1.33.937l-.741.739a2.905 2.905 0 0 0-2.335-.992 3.27 3.27 0 0 0-2.326.93 3.5 3.5 0 0 0 0 4.854 3.3 3.3 0 0 0 2.326.93 3.254 3.254 0 0 0 2.376-.937 2.624 2.624 0 0 0 .713-1.7H4.419V4.104h4.12a2.848 2.848 0 0 1 .063.632z" fill="#fff" stroke="#fff" stroke-miterlimit="10" stroke-width=".16"/></g><g id="g22" transform="translate(68.82 10.007)"><path id="path24" d="M4.966 1.032h-3.87v2.663h3.489v1.013H1.096v2.668h3.87v1.032H0v-8.4h4.966z" fill="#fff" stroke="#fff" stroke-miterlimit="10" stroke-width=".16"/></g><g id="g26" transform="translate(74.929 10.007)"><path id="path28" d="M3.469 8.403h-1.1V1.032H-.005V0h5.846v1.032H3.465z" fill="#fff" stroke="#fff" stroke-miterlimit="10" stroke-width=".16"/></g><g id="g30" transform="translate(85.004 10.007)"><path id="path32" d="M0 8.403v-8.4h1.094v8.4z" fill="#fff" stroke="#fff" stroke-miterlimit="10" stroke-width=".16"/></g><g id="g34" transform="translate(87.477 10.007)"><path id="path36" d="M3.467 8.403H2.38V1.032H-.003V0h5.852v1.032H3.467z" fill="#fff" stroke="#fff" stroke-miterlimit="10" stroke-width=".16"/></g><g id="g38" transform="translate(96.901 9.812)"><path id="path40" d="M7.494 7.512a4.458 4.458 0 0 1-6.24 0 4.511 4.511 0 0 1 0-6.241 4.44 4.44 0 0 1 6.233.007 4.494 4.494 0 0 1 .007 6.234zm-5.43-.7a3.3 3.3 0 0 0 4.62 0 3.552 3.552 0 0 0 0-4.833 3.3 3.3 0 0 0-4.62 0 3.552 3.552 0 0 0 0 4.833z" fill="#fff" stroke="#fff" stroke-miterlimit="10" stroke-width=".16"/></g><g id="g42" transform="translate(107.185 10.007)"><path id="path44" d="M0 8.403v-8.4h1.33l4.135 6.533h.048L5.465 4.92V0h1.094v8.4H5.417L1.088 1.542H1.04l.048 1.623V8.4z" fill="#fff" stroke="#fff" stroke-miterlimit="10" stroke-width=".16"/></g><path id="path46" d="M304.713 396.328a5.963 5.963 0 1 0 6.059 5.963 5.912 5.912 0 0 0-6.059-5.963zm0 9.576a3.62 3.62 0 1 1 3.407-3.613 3.464 3.464 0 0 1-3.407 3.609zm-13.206-9.576a5.962 5.962 0 1 0 6.052 5.963 5.908 5.908 0 0 0-6.052-5.963zm0 9.576a3.621 3.621 0 1 1 3.4-3.613 3.469 3.469 0 0 1-3.4 3.609zm-15.714-7.748v2.534h6.121a5.232 5.232 0 0 1-1.392 3.182 6.327 6.327 0 0 1-4.73 1.848 6.728 6.728 0 0 1 0-13.457 6.533 6.533 0 0 1 4.613 1.806l1.806-1.785a8.986 8.986 0 0 0-6.419-2.553 9.264 9.264 0 1 0 0 18.521 8.616 8.616 0 0 0 6.538-2.6 9.022 9.022 0 0 0 2.078-7.5zm64.257 1.964a5.589 5.589 0 0 0-5.166-3.792 5.7 5.7 0 0 0-5.685 5.963 5.867 5.867 0 0 0 5.983 5.961 6 6 0 0 0 5.028-2.642l-2.057-1.354a3.457 3.457 0 0 1-2.971 1.649 3.07 3.07 0 0 1-2.922-1.806l8.068-3.3zm-8.226 1.985a3.289 3.289 0 0 1 3.15-3.476 2.348 2.348 0 0 1 2.244 1.265zm-6.558 5.784h2.652v-17.522h-2.652zm-4.343-10.233h-.089a4.2 4.2 0 0 0-3.172-1.328 5.965 5.965 0 0 0 0 11.924 4.141 4.141 0 0 0 3.172-1.355h.089v.855c0 2.28-1.232 3.5-3.219 3.5a3.346 3.346 0 0 1-3.04-2.129l-2.306.951a5.755 5.755 0 0 0 5.342 3.526c3.11 0 5.733-1.808 5.733-6.208v-10.701h-2.514zm-3.033 8.244a3.624 3.624 0 0 1 0-7.228 3.638 3.638 0 0 1 0 7.228zm34.577-15.537h-6.343v17.522h2.645v-6.635h3.7a5.454 5.454 0 1 0 0-10.883zm.069 8.446h-3.767V392.8h3.767a3.006 3.006 0 1 1 0 6.008zm16.35-2.518a4.971 4.971 0 0 0-4.716 2.682l2.347.972a2.511 2.511 0 0 1 2.416-1.288 2.541 2.541 0 0 1 2.785 2.253v.184a5.865 5.865 0 0 0-2.764-.678c-2.528 0-5.1 1.375-5.1 3.942 0 2.348 2.07 3.86 4.4 3.86a3.754 3.754 0 0 0 3.379-1.717h.09v1.354h2.555v-6.715c-.004-3.107-2.351-4.845-5.391-4.845zm-.319 9.6c-.865 0-2.071-.424-2.071-1.484 0-1.356 1.5-1.877 2.8-1.877a4.79 4.79 0 0 1 2.418.589 3.2 3.2 0 0 1-3.146 2.781zm15.014-9.218-3.04 7.6h-.09l-3.143-7.6h-2.853l4.723 10.615-2.695 5.907h2.764l7.277-16.521zm-23.842 11.211h2.652v-17.517h-2.652z" transform="translate(-208.081 -364.906)" fill="#fff"/><g id="g48" transform="translate(14.142 10.931)"><path id="path64" d="M76 331.642a2.77 2.77 0 0 0-.658 1.971v31a2.769 2.769 0 0 0 .658 1.97l.1.095 17.576-17.364v-.41L76.107 331.54z" transform="translate(-75.346 -331.54)" fill="url(#linear-gradient)"/></g><g id="g66" transform="translate(32.478 22.504)"><path id="path78" d="m160.655 393.683-5.852-5.791v-.41l5.859-5.791.131.075 6.939 3.9c1.98 1.107 1.98 2.93 0 4.044l-6.939 3.9z" transform="translate(-154.803 -381.691)" fill="url(#linear-gradient-2)"/></g><g id="g80" transform="translate(14.799 28.721)"><path id="path88" d="m101.866 413.594-5.99-5.921L78.2 425.147c.657.684 1.73.766 2.95.082l20.719-11.636" transform="translate(-78.197 -407.673)" fill="url(#linear-gradient-3)"/></g><g id="g90" transform="translate(14.799 10.256)"><path id="path104" d="m101.866 341.673-20.719-11.637c-1.22-.676-2.292-.594-2.95.089l17.678 17.467z" transform="translate(-78.197 -329.569)" fill="url(#linear-gradient-4)"/></g></g></g></svg>